<?xml version="1.0" standalone="no"?>
<!DOCTYPE svg PUBLIC "-//W3C//DTD SVG 20010904//EN"
 "http://www.w3.org/TR/2001/REC-SVG-20010904/DTD/svg10.dtd">
<svg version="1.0" xmlns="http://www.w3.org/2000/svg"
 width="540.000000pt" height="540.000000pt" viewBox="0 0 540.000000 540.000000"
 preserveAspectRatio="xMidYMid meet">

<g transform="translate(0.000000,540.000000) scale(0.100000,-0.100000)"
fill="#000000" stroke="none">
<path d="M40 4772 c0 -10 22 -32 32 -32 4 0 8 9 8 20 0 13 -7 20 -20 20 -11 0
-20 -4 -20 -8z"/>
<path d="M98 4693 c12 -2 32 -2 45 0 12 2 2 4 -23 4 -25 0 -35 -2 -22 -4z"/>
<path d="M32 4669 c-13 -5 -20 -14 -17 -19 4 -6 3 -19 -1 -28 -17 -40 -15 -52
12 -52 18 0 25 4 21 14 -8 19 18 28 45 16 l23 -10 -24 3 c-13 1 -26 -3 -28 -8
-2 -7 12 -11 32 -11 19 0 40 -5 47 -12 9 -9 -5 -12 -65 -12 l-77 0 0 -730 c0
-649 2 -730 16 -730 8 0 13 -4 9 -9 -3 -6 4 -15 15 -21 17 -9 20 -19 17 -51
-2 -22 -11 -45 -21 -52 -16 -12 -15 -14 8 -35 15 -12 26 -28 26 -34 0 -9 3 -8
10 2 7 11 11 9 19 -13 13 -32 37 -35 46 -6 4 12 10 17 14 12 3 -5 14 -12 24
-16 12 -5 16 -16 15 -39 -3 -28 1 -34 20 -36 18 -3 22 1 22 25 1 24 2 26 11
10 8 -13 18 -17 38 -12 21 4 33 0 54 -21 15 -15 27 -35 27 -44 0 -10 6 -20 14
-23 9 -4 14 -25 15 -65 1 -56 -1 -61 -21 -64 -31 -4 -30 -39 2 -55 20 -10 25
-20 25 -50 0 -31 5 -40 28 -51 15 -7 27 -21 27 -32 0 -10 6 -21 12 -23 8 -4 3
-9 -11 -13 -23 -7 -23 -8 -6 -14 22 -8 31 -70 11 -70 -13 0 -14 -69 -1 -89 4
-7 -4 -11 -19 -11 -40 0 -30 -15 16 -26 28 -6 44 -15 46 -26 2 -11 -3 -18 -11
-18 -10 0 -13 -7 -10 -20 3 -11 12 -20 19 -20 8 0 23 -9 35 -21 l21 -21 -28 6
c-27 6 -29 4 -31 -23 -2 -34 24 -56 81 -66 32 -6 36 -5 36 14 0 19 26 41 49
41 6 0 11 -9 11 -19 0 -11 3 -27 6 -36 5 -13 8 -14 15 -3 6 10 11 9 23 -7 20
-26 20 -39 1 -31 -10 3 -15 -1 -15 -13 0 -11 -6 -22 -13 -25 -6 -3 2 -4 18 -1
17 2 24 2 17 -1 -6 -3 -12 -12 -12 -20 0 -19 -26 -18 -34 2 -5 13 -14 15 -44
9 -45 -8 -67 -24 -53 -38 7 -7 15 -6 25 2 20 17 88 -13 79 -35 -3 -7 2 -17 11
-20 9 -3 16 -12 16 -20 0 -8 16 -16 41 -20 24 -4 36 -10 28 -14 -8 -6 -5 -11
10 -19 21 -12 29 -41 11 -41 -23 0 -8 -19 17 -22 36 -4 42 -33 12 -57 -31 -25
-20 -55 16 -41 33 13 33 -4 -1 -35 -24 -23 -25 -26 -12 -62 7 -21 17 -41 23
-45 5 -4 1 -10 -10 -14 -11 -4 -25 -14 -31 -22 -6 -8 -16 -12 -21 -9 -6 4 -14
0 -17 -9 -5 -13 -14 -15 -44 -10 -20 4 -49 7 -64 7 -20 0 -26 4 -21 15 4 10 1
14 -8 13 -8 -2 -25 3 -38 10 -19 10 -21 15 -10 22 11 7 12 10 1 21 -11 11 -16
10 -27 -5 -8 -12 -15 -14 -20 -8 -3 6 -15 11 -25 11 -30 0 -35 21 -9 41 17 13
20 19 8 19 -8 0 -24 8 -35 18 -11 10 -25 17 -32 14 -7 -2 -22 4 -32 13 -10 9
-24 14 -29 10 -6 -3 -11 -1 -11 5 0 7 -8 9 -20 5 -11 -4 -20 -2 -20 4 0 6 14
11 30 11 17 0 30 4 30 8 0 14 -113 8 -118 -5 -7 -23 -20 -14 -27 19 -12 63
-24 76 -76 83 -27 4 -49 11 -49 16 0 5 5 9 12 9 9 0 9 3 1 11 -13 13 -36 3
-28 -12 4 -5 0 -9 -7 -9 -7 0 -19 9 -26 20 -7 11 -23 20 -36 20 -20 0 -23 4
-18 22 4 17 2 20 -12 15 -10 -4 -20 -7 -22 -7 -2 0 -4 -394 -4 -875 l0 -875
2700 0 2700 0 0 1575 c0 1558 0 1575 -20 1575 -10 0 -28 -10 -40 -22 l-20 -22
-20 22 c-27 28 -25 32 10 32 18 0 37 8 47 20 10 11 23 20 30 20 10 0 13 26 13
105 0 93 -2 105 -17 105 -22 0 -55 -20 -34 -20 11 0 11 -3 0 -16 -10 -13 -10
-17 2 -24 11 -8 9 -13 -11 -27 -13 -10 -31 -21 -40 -25 -9 -4 0 -7 22 -7 27
-1 38 4 41 17 4 16 5 16 6 0 1 -10 -13 -25 -31 -35 l-33 -17 31 -6 c58 -13 58
-21 0 -48 -31 -13 -56 -29 -56 -33 0 -5 -9 -9 -20 -9 -11 0 -20 -4 -20 -10 0
-5 9 -14 20 -20 31 -17 24 -28 -22 -37 -26 -5 -43 -14 -44 -23 -1 -9 1 -10 3
-2 7 20 61 15 73 -7 24 -46 -7 -90 -70 -96 -8 -1 -21 -3 -28 -4 -10 -1 -10 -6
-1 -22 10 -20 9 -21 -25 -17 -41 5 -46 1 -13 -11 21 -8 21 -9 3 -17 -13 -5
-23 -2 -31 9 -7 10 -17 17 -24 17 -14 0 -15 -46 -1 -55 6 -3 10 -10 10 -16 0
-5 -4 -9 -10 -9 -5 0 -10 6 -10 14 0 8 -7 16 -15 20 -8 3 -15 13 -15 23 0 16
-1 16 -17 0 -17 -17 -17 -19 0 -31 23 -18 22 -35 -3 -29 -11 3 -20 11 -20 18
0 23 -45 43 -89 41 -25 -1 -46 3 -53 11 -14 18 -47 17 -54 -2 -5 -11 -11 -12
-25 -4 -21 11 -53 -1 -63 -23 -3 -7 -4 -1 -1 15 6 32 3 33 -33 7 -30 -22 -62
-18 -62 6 0 11 -7 13 -27 8 -41 -10 -52 -24 -25 -31 31 -8 22 -28 -14 -29 -16
-1 -33 -2 -37 -3 -13 -2 13 -41 27 -41 8 0 17 -7 20 -16 5 -13 1 -15 -19 -10
-14 4 -34 2 -44 -4 -14 -7 -21 -6 -23 2 -4 10 -11 9 -34 -2 -28 -15 -27 -15
51 -20 49 -3 71 -8 58 -12 -13 -3 -51 -4 -85 0 -58 5 -62 4 -49 -11 8 -11 9
-17 2 -17 -13 0 -95 18 -137 31 -26 8 -39 5 -78 -17 -28 -16 -46 -21 -46 -14
0 10 -3 10 -15 0 -12 -10 -17 -7 -26 14 -15 31 -28 18 -30 -29 -1 -29 -1 -30
-9 -5 -4 14 -8 19 -9 13 -2 -30 -21 -10 -21 23 0 21 -4 33 -10 29 -14 -9 -13
-85 1 -85 8 0 8 -5 -1 -15 -11 -13 -8 -15 14 -15 14 0 26 -4 26 -10 0 -5 -20
-10 -45 -10 -33 0 -45 -4 -45 -15 0 -8 -7 -15 -15 -15 -8 0 -15 5 -15 10 0 6
-25 9 -57 9 -56 -2 -56 -2 -18 -9 22 -4 32 -8 22 -9 -11 0 -15 -6 -11 -12 3
-6 19 -9 35 -5 29 5 48 -7 28 -19 -5 -4 -27 -7 -47 -8 -20 0 -40 -5 -43 -10
-9 -13 -62 1 -54 13 3 6 16 10 28 11 12 1 2 5 -23 11 -25 5 -59 16 -77 24 -17
8 -38 14 -47 14 -9 0 -16 5 -16 10 0 7 -8 7 -22 -1 -18 -10 -24 -8 -35 7 -7
10 -13 24 -13 31 0 19 -14 16 -35 -7 -21 -23 -44 -28 -25 -5 10 12 9 15 -4 15
-10 0 -15 4 -11 9 3 5 1 12 -5 16 -5 3 -10 -1 -10 -10 0 -9 -5 -13 -10 -10 -6
4 -8 11 -5 16 4 5 -7 9 -24 9 -16 0 -32 6 -34 13 -4 8 -6 9 -6 0 -1 -7 -17 -3
-43 12 -38 21 -55 23 -146 21 -56 -1 -105 0 -108 3 -10 10 -94 11 -94 1 0 -5
-4 -10 -9 -10 -5 0 -8 11 -5 24 3 20 1 23 -16 19 -16 -4 -19 -11 -14 -27 6
-21 6 -21 -10 -1 -17 23 -21 39 -6 30 6 -3 10 -1 10 4 0 6 -7 11 -15 11 -8 0
-15 6 -15 14 0 8 -7 16 -14 19 -11 4 -13 1 -9 -10 4 -11 2 -14 -5 -9 -7 4 -12
13 -12 19 0 13 -41 53 -51 50 -4 -1 -6 9 -6 24 -1 14 -5 28 -10 32 -6 3 -11
28 -12 55 0 26 -4 52 -7 57 -3 5 6 24 19 41 25 34 37 89 43 197 3 52 0 69 -18
94 l-21 30 21 16 c18 14 20 21 13 54 -13 53 -35 84 -80 107 -46 23 -55 48 -26
73 20 18 20 18 -2 7 -28 -13 -29 -1 -5 31 36 47 149 235 176 294 69 146 95
335 62 450 -25 84 -81 183 -119 206 -43 25 -55 24 -31 -3 19 -22 64 -108 64
-122 0 -4 -4 -4 -10 -1 -15 9 -12 0 13 -42 19 -33 22 -52 22 -153 0 -105 -3
-121 -31 -191 -31 -76 -130 -239 -146 -239 -4 0 -8 6 -8 13 0 6 -10 25 -23 40
l-22 28 0 -75 c0 -68 -3 -77 -31 -113 -23 -29 -39 -39 -65 -41 -19 -1 -56 -9
-84 -17 -53 -15 -63 -15 -108 3 -40 17 -61 15 -118 -9 -61 -27 -80 -20 -133
44 -34 42 -37 50 -38 116 -1 76 -13 82 -38 21 -7 -17 -15 -30 -19 -30 -13 0
-121 150 -149 207 -41 82 -45 102 -43 243 1 111 4 128 23 154 11 16 22 36 23
45 3 28 22 66 50 99 30 36 27 39 -14 17 -77 -39 -149 -168 -165 -293 -22 -183
24 -318 194 -564 61 -87 110 -161 110 -164 0 -3 -10 -2 -22 2 -49 15 -52 15
-26 0 31 -18 29 -33 -17 -131 -30 -62 -37 -153 -15 -180 18 -21 -8 -143 -28
-131 -4 2 -7 -8 -8 -22 -1 -15 -4 -43 -8 -62 -4 -19 -7 -45 -7 -58 1 -24 24
-55 34 -46 3 4 16 -2 29 -11 l23 -17 -30 6 c-30 7 -30 7 -7 -9 12 -9 27 -13
32 -10 6 3 10 3 10 -2 0 -13 -14 -28 -27 -29 -62 -5 -66 -7 -23 -13 26 -3 49
-2 53 4 5 6 7 4 4 -5 -5 -20 -106 -43 -124 -29 -8 8 -21 5 -42 -7 -24 -14 -33
-16 -43 -6 -9 9 -9 12 1 12 7 0 9 5 6 10 -3 6 -17 10 -31 10 -13 0 -24 5 -24
10 0 6 3 10 8 10 4 0 8 14 9 30 2 21 -2 30 -12 30 -8 0 -15 5 -15 11 0 6 -8 8
-19 4 -15 -4 -18 -1 -14 19 6 29 -16 45 -31 23 -11 -15 -28 -21 -52 -18 -7 0
-15 12 -18 26 -5 21 -11 24 -31 19 -52 -13 -83 19 -50 52 22 22 8 45 -24 38
-18 -4 -22 -3 -12 4 20 14 -4 25 -28 12 -28 -14 -33 -13 -26 9 4 14 -1 25 -19
37 -14 9 -23 20 -20 25 3 5 -5 10 -18 10 -49 3 -53 5 -56 25 -2 16 -12 23 -35
27 -36 5 -48 0 -28 -12 24 -15 -9 -24 -36 -10 -20 11 -26 11 -33 -1 -8 -13
-10 -13 -10 1 0 8 5 20 12 27 9 9 8 12 -5 12 -9 0 -17 5 -17 10 0 6 -11 10
-25 10 -19 0 -25 5 -25 21 0 11 -4 18 -9 14 -5 -3 -12 -1 -16 5 -3 6 1 13 9
16 18 7 22 49 5 60 -7 4 -9 0 -5 -12 11 -36 -27 -61 -66 -43 -23 9 -23 9 -1 5
15 -2 20 0 16 10 -2 7 5 23 16 35 24 26 24 27 -26 44 -33 12 -35 14 -12 15 25
0 39 16 39 42 0 6 -3 8 -7 4 -5 -4 -8 -13 -8 -19 0 -7 -18 -12 -44 -13 -33 -1
-45 3 -48 15 -4 18 -43 27 -43 10 0 -14 -17 -11 -23 4 -4 10 3 13 24 12 16 -1
29 2 29 7 0 4 12 8 26 8 47 0 19 23 -31 26 -28 1 -51 7 -56 15 -18 33 -49 60
-80 70 -84 27 -86 28 -81 61 4 27 2 29 -16 24 -27 -9 -35 6 -22 39 9 23 7 28
-11 32 -21 6 -21 7 -4 20 17 12 15 13 -18 13 -22 0 -37 5 -37 12 0 6 -7 20
-17 30 -15 17 -15 18 5 18 11 0 22 6 25 13 3 9 7 9 20 -2 21 -17 22 -5 2 15
-11 11 -19 12 -34 4 -26 -13 -31 -13 -31 4 0 8 8 16 18 19 16 4 15 5 -2 12
-14 6 -25 2 -42 -18 -22 -25 -52 -36 -55 -19 -4 21 -10 62 -15 105 -5 41 -9
47 -25 42 -11 -4 -19 -2 -19 4 0 6 -15 11 -32 11 -18 0 -28 -4 -22 -8 9 -5 8
-10 -1 -19 -11 -10 -14 -7 -17 15 -2 20 -9 27 -25 27 -11 0 -24 3 -28 7 -4 4
-13 4 -19 2 -20 -8 -39 23 -32 52 5 20 12 25 26 21 25 -7 37 11 13 19 -10 3
-26 10 -35 15 -28 15 -40 11 -33 -11 4 -11 2 -20 -4 -20 -6 0 -11 8 -12 18 0
10 -3 12 -6 5 -7 -19 -27 -16 -49 8 -18 20 -18 20 11 14 23 -5 26 -4 15 4 -8
6 -23 11 -32 11 -36 0 -17 20 20 21 31 0 33 2 16 9 -37 15 -38 30 -2 31 27 1
29 3 8 6 -14 3 -30 9 -36 14 -7 6 -22 6 -38 -1 -36 -13 -41 -13 -26 5 7 8 20
15 29 15 14 1 14 2 -1 14 -22 16 -23 26 -3 26 19 0 19 16 0 24 -8 3 -37 8 -65
12 -27 4 -50 11 -50 16 0 6 14 8 33 4 90 -16 134 -18 142 -6 5 8 1 18 -10 27
-17 12 -18 13 -1 13 9 0 14 5 11 10 -3 6 -15 10 -25 10 -10 0 -28 12 -40 28
l-22 27 28 3 c29 4 54 23 54 43 0 7 -9 3 -20 -9 -13 -14 -33 -22 -53 -22 -18
0 -43 -3 -57 -6 -22 -5 -23 -4 -8 8 15 13 15 15 0 25 -16 11 -16 12 1 12 9 1
17 8 17 16 0 12 -4 13 -19 5 -11 -5 -29 -10 -40 -10 -25 0 -27 -15 -5 -28 12
-7 13 -11 5 -16 -10 -7 -50 29 -51 46 0 4 15 9 33 11 l32 4 -30 1 c-16 0 -40
-3 -53 -9z m153 -79 c-3 -5 -10 -10 -16 -10 -5 0 -9 5 -9 10 0 6 7 10 16 10 8
0 12 -4 9 -10z m-28 -66 c-3 -3 -12 -4 -19 -1 -8 3 -5 6 6 6 11 1 17 -2 13 -5z
m36 -91 c-7 -2 -19 -2 -25 0 -7 3 -2 5 12 5 14 0 19 -2 13 -5z m134 -285 c-3
-8 -6 -5 -6 6 -1 11 2 17 5 13 3 -3 4 -12 1 -19z m233 -98 c0 -5 -4 -10 -10
-10 -5 0 -10 5 -10 10 0 6 5 10 10 10 6 0 10 -4 10 -10z m2085 -771 c0 -7 -8
-15 -17 -17 -18 -3 -25 18 -11 32 10 10 28 1 28 -15z m-229 -20 c7 -12 -15
-31 -28 -23 -4 3 -8 12 -8 20 0 17 26 19 36 3z m-996 -33 c0 -3 -4 -8 -10 -11
-5 -3 -10 -1 -10 4 0 6 5 11 10 11 6 0 10 -2 10 -4z m3965 -106 c3 -5 -1 -10
-9 -10 -9 0 -16 5 -16 10 0 6 4 10 9 10 6 0 13 -4 16 -10z m-65 -80 c0 -21
-15 -27 -25 -10 -7 12 2 30 16 30 5 0 9 -9 9 -20z m40 -56 c0 -8 -6 -11 -15
-8 -8 4 -15 12 -15 20 0 8 6 11 15 8 8 -4 15 -12 15 -20z m-3547 -21 c3 -5 -6
-9 -20 -10 -19 -1 -22 1 -12 8 17 11 26 11 32 2z m3432 -13 c3 -5 1 -10 -4
-10 -6 0 -11 5 -11 10 0 6 2 10 4 10 3 0 8 -4 11 -10z m-3455 -20 c0 -5 -4
-10 -10 -10 -5 0 -10 5 -10 10 0 6 5 10 10 10 6 0 10 -4 10 -10z m326 -86 c-3
-9 -13 -14 -20 -11 -8 3 -16 1 -18 -4 -2 -6 -11 -4 -21 4 -18 12 -17 14 7 25
22 10 26 9 26 -3 0 -24 20 -17 21 8 0 12 3 16 6 9 3 -7 2 -20 -1 -28z m2474
-8 c0 -2 -7 -6 -15 -10 -8 -3 -15 -1 -15 4 0 6 7 10 15 10 8 0 15 -2 15 -4z
m415 -16 c3 -5 1 -10 -4 -10 -6 0 -11 5 -11 10 0 6 2 10 4 10 3 0 8 -4 11 -10z
m-745 -85 c0 -8 -4 -15 -10 -15 -5 0 -10 7 -10 15 0 8 5 15 10 15 6 0 10 -7
10 -15z m-896 -4 c4 -5 -3 -7 -14 -4 -23 6 -26 13 -6 13 8 0 17 -4 20 -9z
m715 -127 c2 -2 -8 -4 -23 -4 -15 0 -36 -5 -47 -10 -21 -12 -22 -10 -13 14 5
13 14 15 43 10 20 -4 38 -8 40 -10z m-478 -27 c-10 -9 -11 -8 -5 6 3 10 9 15
12 12 3 -3 0 -11 -7 -18z m59 13 c0 -5 -4 -10 -9 -10 -6 0 -13 5 -16 10 -3 6
1 10 9 10 9 0 16 -4 16 -10z m-2912 -602 c-6 -18 -28 -21 -28 -4 0 9 7 16 16
16 9 0 14 -5 12 -12z m112 -639 c0 -6 -4 -7 -10 -4 -5 3 -10 11 -10 16 0 6 5
7 10 4 6 -3 10 -11 10 -16z m-573 -81 c-3 -8 -6 -5 -6 6 -1 11 2 17 5 13 3 -3
4 -12 1 -19z m793 -258 c0 -5 -5 -10 -11 -10 -5 0 -7 5 -4 10 3 6 8 10 11 10
2 0 4 -4 4 -10z m3394 -374 c-5 -21 -2 -23 22 -20 43 4 85 -7 92 -25 3 -9 10
-20 16 -24 8 -6 7 -10 -1 -14 -7 -2 -13 -11 -13 -19 0 -8 -7 -17 -15 -20 -17
-7 -21 -44 -4 -44 6 0 7 -6 2 -12 -4 -7 -6 -26 -4 -42 2 -20 -1 -26 -10 -21
-9 6 -11 0 -6 -26 5 -24 4 -30 -3 -19 -8 12 -10 9 -10 -12 0 -18 -5 -28 -14
-28 -12 0 -13 7 -5 32 12 43 12 71 -1 63 -5 -3 -10 -16 -10 -28 0 -21 -1 -21
-13 3 -22 42 -38 107 -31 126 4 14 3 15 -4 6 -7 -11 -12 -7 -20 17 -9 24 -8
32 3 38 10 6 11 13 5 23 -7 11 -10 11 -10 2 0 -7 -4 -10 -10 -7 -5 3 -10 15
-10 27 0 17 3 18 15 8 12 -10 16 -8 25 14 12 33 22 34 14 2z m171 -122 c-9 -9
-19 -13 -23 -10 -3 4 0 11 8 16 24 15 33 11 15 -6z"/>
<path d="M4560 560 c0 -5 5 -10 10 -10 6 0 10 5 10 10 0 6 -4 10 -10 10 -5 0
-10 -4 -10 -10z"/>
<path d="M4490 500 c0 -5 7 -10 15 -10 8 0 15 5 15 10 0 6 -7 10 -15 10 -8 0
-15 -4 -15 -10z"/>
<path d="M4490 460 c0 -5 7 -10 15 -10 8 0 15 5 15 10 0 6 -7 10 -15 10 -8 0
-15 -4 -15 -10z"/>
<path d="M4540 431 c0 -6 5 -13 10 -16 6 -3 10 1 10 9 0 9 -4 16 -10 16 -5 0
-10 -4 -10 -9z"/>
<path d="M240 4575 c0 -12 7 -15 25 -13 33 4 33 22 0 26 -18 2 -25 -1 -25 -13z"/>
<path d="M300 4510 c0 -13 11 -13 30 0 12 8 11 10 -7 10 -13 0 -23 -4 -23 -10z"/>
<path d="M5368 4373 c6 -2 18 -2 25 0 6 3 1 5 -13 5 -14 0 -19 -2 -12 -5z"/>
<path d="M5368 4353 c6 -2 18 -2 25 0 6 3 1 5 -13 5 -14 0 -19 -2 -12 -5z"/>
<path d="M5260 4330 c0 -5 5 -10 10 -10 6 0 10 5 10 10 0 6 -4 10 -10 10 -5 0
-10 -4 -10 -10z"/>
<path d="M480 4264 c0 -8 5 -12 10 -9 6 3 10 10 10 16 0 5 -4 9 -10 9 -5 0
-10 -7 -10 -16z"/>
<path d="M5340 4269 c0 -5 5 -7 10 -4 6 3 10 8 10 11 0 2 -4 4 -10 4 -5 0 -10
-5 -10 -11z"/>
<path d="M5318 4235 c-11 -11 3 -35 21 -35 10 0 12 3 5 8 -6 4 -13 13 -15 20
-3 7 -7 10 -11 7z"/>
<path d="M460 4201 c0 -11 4 -22 9 -25 11 -7 20 14 13 32 -7 19 -22 14 -22 -7z"/>
<path d="M380 4190 c6 -11 13 -20 15 -20 3 0 5 9 5 20 0 11 -7 20 -15 20 -13
0 -14 -4 -5 -20z"/>
<path d="M420 4184 c0 -8 5 -12 10 -9 6 3 10 10 10 16 0 5 -4 9 -10 9 -5 0
-10 -7 -10 -16z"/>
<path d="M538 4193 c7 -3 16 -2 19 1 4 3 -2 6 -13 5 -11 0 -14 -3 -6 -6z"/>
<path d="M618 4123 c7 -3 16 -2 19 1 4 3 -2 6 -13 5 -11 0 -14 -3 -6 -6z"/>
<path d="M620 4090 c-13 -9 -13 -11 0 -20 10 -6 16 -6 18 0 7 20 -3 30 -18 20z"/>
<path d="M5320 4025 c15 -17 40 -20 40 -4 0 6 -7 9 -15 5 -8 -3 -15 -1 -15 4
0 6 -5 10 -11 10 -8 0 -8 -5 1 -15z"/>
<path d="M624 4019 c-3 -6 -2 -15 4 -21 6 -6 11 -2 15 11 5 22 -7 29 -19 10z"/>
<path d="M5368 3953 c7 -3 16 -2 19 1 4 3 -2 6 -13 5 -11 0 -14 -3 -6 -6z"/>
<path d="M820 3836 c0 -21 20 -30 33 -17 9 9 8 14 -3 21 -21 14 -30 12 -30 -4z"/>
<path d="M5393 3760 c0 -25 2 -35 4 -22 2 12 2 32 0 45 -2 12 -4 2 -4 -23z"/>
<path d="M2858 3693 c6 -2 18 -2 25 0 6 3 1 5 -13 5 -14 0 -19 -2 -12 -5z"/>
<path d="M5368 3693 c6 -2 18 -2 25 0 6 3 1 5 -13 5 -14 0 -19 -2 -12 -5z"/>
<path d="M2918 3683 c7 -3 16 -2 19 1 4 3 -2 6 -13 5 -11 0 -14 -3 -6 -6z"/>
<path d="M5320 3671 c-13 -26 -13 -31 5 -31 9 0 15 9 15 25 0 30 -6 32 -20 6z"/>
<path d="M2968 3673 c6 -2 18 -2 25 0 6 3 1 5 -13 5 -14 0 -19 -2 -12 -5z"/>
<path d="M3030 3660 c36 -12 70 -12 70 0 0 6 -21 10 -47 9 -39 -1 -43 -2 -23
-9z"/>
<path d="M5197 3664 c-9 -10 2 -24 19 -24 8 0 14 7 14 15 0 15 -21 21 -33 9z"/>
<path d="M5364 3634 c6 -23 5 -24 -15 -14 -11 7 -23 9 -26 6 -8 -8 7 -26 23
-26 8 0 14 -4 14 -10 0 -5 7 -10 15 -10 8 0 15 -5 15 -11 0 -7 -10 -9 -25 -5
-24 6 -35 -7 -15 -19 18 -11 11 -53 -9 -60 -17 -5 -38 -72 -26 -83 6 -7 44 41
45 56 0 6 9 12 20 12 19 0 20 7 20 95 0 90 -1 95 -21 95 -18 0 -20 -4 -15 -26z"/>
<path d="M1988 3643 c12 -2 32 -2 45 0 12 2 2 4 -23 4 -25 0 -35 -2 -22 -4z"/>
<path d="M995 3630 c4 -6 11 -8 16 -5 14 9 11 15 -7 15 -8 0 -12 -5 -9 -10z"/>
<path d="M1792 3596 c-29 -6 -53 -16 -52 -21 0 -6 3 -10 8 -10 12 0 112 36
112 41 0 5 2 5 -68 -10z"/>
<path d="M1181 3541 c-11 -7 -9 -11 9 -21 12 -6 24 -9 27 -6 3 3 -2 8 -11 12
-9 3 -13 10 -10 15 7 11 3 11 -15 0z"/>
<path d="M1224 3474 c3 -8 6 -18 6 -20 0 -3 5 -2 10 1 15 9 12 22 -6 29 -12 5
-15 2 -10 -10z"/>
<path d="M1160 3430 c0 -5 7 -10 15 -10 8 0 15 5 15 10 0 6 -7 10 -15 10 -8 0
-15 -4 -15 -10z"/>
<path d="M5078 3403 c7 -3 16 -2 19 1 4 3 -2 6 -13 5 -11 0 -14 -3 -6 -6z"/>
<path d="M5185 3390 c3 -5 8 -10 11 -10 2 0 4 5 4 10 0 6 -5 10 -11 10 -5 0
-7 -4 -4 -10z"/>
<path d="M1280 3364 c0 -2 9 -8 20 -14 11 -6 20 -7 20 -2 0 6 -9 12 -20 15
-11 3 -20 3 -20 1z"/>
<path d="M5300 3350 c-13 -8 -12 -10 3 -10 9 0 17 5 17 10 0 12 -1 12 -20 0z"/>
<path d="M5271 3314 c0 -11 3 -14 6 -6 3 7 2 16 -1 19 -3 4 -6 -2 -5 -13z"/>
<path d="M5106 3287 c-5 -9 -6 -26 -3 -37 4 -16 -1 -19 -36 -22 -23 -2 -42 -9
-45 -17 -3 -9 1 -11 14 -7 11 3 25 2 33 -3 11 -7 5 -13 -24 -25 -20 -9 -51
-16 -67 -16 -17 0 -27 -4 -23 -10 3 -5 17 -10 31 -10 13 0 24 -6 24 -12 1 -7
7 -2 15 12 13 25 14 24 17 -20 3 -40 6 -45 28 -47 15 -1 18 0 7 3 -9 3 -15 10
-12 15 8 13 55 11 55 -2 0 -6 13 -1 29 10 21 15 28 27 24 41 -4 14 0 20 11 20
9 0 16 7 16 15 0 8 -5 15 -10 15 -6 0 -13 -7 -16 -15 -4 -8 -12 -15 -19 -15
-7 0 -15 -6 -18 -14 -7 -17 -68 -7 -75 13 -3 10 3 11 27 6 24 -5 31 -3 31 9 0
9 -8 16 -17 17 -11 0 -5 6 15 15 33 14 43 34 18 34 -9 0 -16 13 -18 33 -3 25
-6 28 -12 14z"/>
<path d="M5040 3258 c0 -19 2 -20 10 -8 13 19 13 30 0 30 -5 0 -10 -10 -10
-22z"/>
<path d="M5240 3251 c-11 -22 -6 -41 12 -41 5 0 8 6 5 14 -3 8 -1 17 6 19 9 3
9 7 0 17 -9 9 -14 8 -23 -9z"/>
<path d="M5280 3230 c0 -5 18 -10 40 -10 22 0 40 5 40 10 0 6 -18 10 -40 10
-22 0 -40 -4 -40 -10z"/>
<path d="M1545 3210 c3 -5 13 -10 21 -10 8 0 14 5 14 10 0 6 -9 10 -21 10 -11
0 -17 -4 -14 -10z"/>
<path d="M5370 3176 c0 -2 7 -6 15 -10 8 -3 15 -1 15 4 0 6 -7 10 -15 10 -8 0
-15 -2 -15 -4z"/>
<path d="M4912 3120 c0 -14 2 -19 5 -12 2 6 2 18 0 25 -3 6 -5 1 -5 -13z"/>
<path d="M4941 3125 c0 -12 -6 -26 -13 -33 -9 -9 -9 -12 0 -12 16 0 25 23 19
47 -4 16 -5 15 -6 -2z"/>
<path d="M1678 3102 c-5 -17 -1 -18 38 -9 49 12 49 27 0 27 -24 0 -35 -5 -38
-18z"/>
<path d="M4975 3051 c-26 -12 -35 -19 -25 -23 22 -7 70 12 70 28 0 8 -1 14 -2
13 -2 0 -21 -8 -43 -18z"/>
<path d="M5048 3033 c7 -3 16 -2 19 1 4 3 -2 6 -13 5 -11 0 -14 -3 -6 -6z"/>
<path d="M5200 3015 c0 -8 4 -15 10 -15 5 0 7 7 4 15 -4 8 -8 15 -10 15 -2 0
-4 -7 -4 -15z"/>
<path d="M4957 2990 c3 -11 9 -20 15 -20 5 0 4 9 -2 20 -6 11 -12 20 -14 20
-2 0 -2 -9 1 -20z"/>
<path d="M4995 2981 c-3 -16 -15 -37 -25 -46 -11 -10 -17 -21 -15 -25 6 -9 55
11 55 22 0 4 7 5 15 2 18 -7 19 9 3 36 -11 17 -10 22 2 30 12 8 11 10 -7 10
-16 0 -23 -8 -28 -29z"/>
<path d="M5070 2985 c0 -8 5 -15 10 -15 6 0 10 7 10 15 0 8 -4 15 -10 15 -5 0
-10 -7 -10 -15z"/>
<path d="M1920 2980 c0 -5 5 -10 11 -10 5 0 7 5 4 10 -3 6 -8 10 -11 10 -2 0
-4 -4 -4 -10z"/>
<path d="M5120 2967 c0 -27 13 -36 26 -16 3 6 -1 18 -10 27 -15 15 -16 14 -16
-11z"/>
<path d="M4867 2946 c-8 -21 7 -36 33 -35 11 1 11 2 -2 6 -9 2 -18 14 -20 26
-3 21 -4 21 -11 3z"/>
<path d="M1950 2940 c0 -5 5 -10 10 -10 6 0 10 5 10 10 0 6 -4 10 -10 10 -5 0
-10 -4 -10 -10z"/>
<path d="M2015 2940 c-3 -5 -1 -10 4 -10 6 0 11 5 11 10 0 6 -2 10 -4 10 -3 0
-8 -4 -11 -10z"/>
<path d="M4641 2904 c0 -11 3 -14 6 -6 3 7 2 16 -1 19 -3 4 -6 -2 -5 -13z"/>
<path d="M4370 2760 c0 -5 7 -10 15 -10 8 0 15 5 15 10 0 6 -7 10 -15 10 -8 0
-15 -4 -15 -10z"/>
<path d="M3410 2740 c8 -5 20 -10 25 -10 6 0 3 5 -5 10 -8 5 -19 10 -25 10 -5
0 -3 -5 5 -10z"/>
<path d="M4001 2724 c0 -11 3 -14 6 -6 3 7 2 16 -1 19 -3 4 -6 -2 -5 -13z"/>
<path d="M267 2683 c-12 -11 -8 -91 5 -99 6 -4 14 -2 16 4 2 7 12 12 23 12 12
0 16 5 13 14 -3 8 -12 12 -19 9 -16 -5 -31 39 -20 56 7 12 -8 15 -18 4z"/>
<path d="M418 2203 c7 -3 16 -2 19 1 4 3 -2 6 -13 5 -11 0 -14 -3 -6 -6z"/>
<path d="M640 1790 c0 -5 4 -10 9 -10 6 0 13 5 16 10 3 6 -1 10 -9 10 -9 0
-16 -4 -16 -10z"/>
<path d="M680 1756 c0 -9 7 -16 16 -16 17 0 14 22 -4 28 -7 2 -12 -3 -12 -12z"/>
<path d="M540 1441 c0 -6 5 -13 10 -16 6 -3 10 1 10 9 0 9 -4 16 -10 16 -5 0
-10 -4 -10 -9z"/>
<path d="M620 1390 c0 -5 5 -10 10 -10 6 0 10 5 10 10 0 6 -4 10 -10 10 -5 0
-10 -4 -10 -10z"/>
</g>
</svg>
