<svg width="1140" height="170" viewBox="0 0 1140 170" fill="none" xmlns="http://www.w3.org/2000/svg">
<path d="M-163 170L6 0" stroke="#343434" stroke-width="0.5"/>
<path d="M-149 170L20 0" stroke="#343434" stroke-width="0.5"/>
<path d="M-135 170L34 0" stroke="#343434" stroke-width="0.5"/>
<path d="M-121 170L48 0" stroke="#343434" stroke-width="0.5"/>
<path d="M-107 170L62 0" stroke="#343434" stroke-width="0.5"/>
<path d="M-93 170L76 0" stroke="#343434" stroke-width="0.5"/>
<path d="M-79 170L90 0" stroke="#343434" stroke-width="0.5"/>
<path d="M-65 170L104 0" stroke="#343434" stroke-width="0.5"/>
<path d="M-51 170L118 0" stroke="#343434" stroke-width="0.5"/>
<path d="M-37 170L132 0" stroke="#343434" stroke-width="0.5"/>
<path d="M-23 170L146 0" stroke="#343434" stroke-width="0.5"/>
<path d="M-9 170L160 0" stroke="#343434" stroke-width="0.5"/>
<path d="M5 170L174 0" stroke="#343434" stroke-width="0.5"/>
<path d="M19 170L188 0" stroke="#343434" stroke-width="0.5"/>
<path d="M33 170L202 0" stroke="#343434" stroke-width="0.5"/>
<path d="M47 170L216 0" stroke="#343434" stroke-width="0.5"/>
<path d="M61 170L230 0" stroke="#343434" stroke-width="0.5"/>
<path d="M75 170L244 0" stroke="#343434" stroke-width="0.5"/>
<path d="M89 170L258 0" stroke="#343434" stroke-width="0.5"/>
<path d="M103 170L272 0" stroke="#343434" stroke-width="0.5"/>
<path d="M117 170L286 0" stroke="#343434" stroke-width="0.5"/>
<path d="M131 170L300 0" stroke="#343434" stroke-width="0.5"/>
<path d="M145 170L314 0" stroke="#343434" stroke-width="0.5"/>
<path d="M159 170L328 0" stroke="#343434" stroke-width="0.5"/>
<path d="M173 170L342 0" stroke="#343434" stroke-width="0.5"/>
<path d="M187 170L356 0" stroke="#343434" stroke-width="0.5"/>
<path d="M201 170L370 0" stroke="#343434" stroke-width="0.5"/>
<path d="M215 170L384 0" stroke="#343434" stroke-width="0.5"/>
<path d="M229 170L398 0" stroke="#343434" stroke-width="0.5"/>
<path d="M243 170L412 0" stroke="#343434" stroke-width="0.5"/>
<path d="M257 170L426 0" stroke="#343434" stroke-width="0.5"/>
<path d="M271 170L440 0" stroke="#343434" stroke-width="0.5"/>
<path d="M285 170L454 0" stroke="#343434" stroke-width="0.5"/>
<path d="M299 170L468 0" stroke="#343434" stroke-width="0.5"/>
<path d="M313 170L482 0" stroke="#343434" stroke-width="0.5"/>
<path d="M327 170L496 0" stroke="#343434" stroke-width="0.5"/>
<path d="M341 170L510 0" stroke="#343434" stroke-width="0.5"/>
<path d="M355 170L524 0" stroke="#343434" stroke-width="0.5"/>
<path d="M369 170L538 0" stroke="#343434" stroke-width="0.5"/>
<path d="M383 170L552 0" stroke="#343434" stroke-width="0.5"/>
<path d="M397 170L566 0" stroke="#343434" stroke-width="0.5"/>
<path d="M411 170L580 0" stroke="#343434" stroke-width="0.5"/>
<path d="M425 170L594 0" stroke="#343434" stroke-width="0.5"/>
<path d="M439 170L608 0" stroke="#343434" stroke-width="0.5"/>
<path d="M453 170L622 0" stroke="#343434" stroke-width="0.5"/>
<path d="M467 170L636 0" stroke="#343434" stroke-width="0.5"/>
<path d="M481 170L650 0" stroke="#343434" stroke-width="0.5"/>
<path d="M495 170L664 0" stroke="#343434" stroke-width="0.5"/>
<path d="M509 170L678 0" stroke="#343434" stroke-width="0.5"/>
<path d="M523 170L692 0" stroke="#343434" stroke-width="0.5"/>
<path d="M537 170L706 0" stroke="#343434" stroke-width="0.5"/>
<path d="M551 170L720 0" stroke="#343434" stroke-width="0.5"/>
<path d="M565 170L734 0" stroke="#343434" stroke-width="0.5"/>
<path d="M579 170L748 0" stroke="#343434" stroke-width="0.5"/>
<path d="M593 170L762 0" stroke="#343434" stroke-width="0.5"/>
<path d="M607 170L776 0" stroke="#343434" stroke-width="0.5"/>
<path d="M621 170L790 0" stroke="#343434" stroke-width="0.5"/>
<path d="M635 170L804 0" stroke="#343434" stroke-width="0.5"/>
<path d="M649 170L818 0" stroke="#343434" stroke-width="0.5"/>
<path d="M663 170L832 0" stroke="#343434" stroke-width="0.5"/>
<path d="M677 170L846 0" stroke="#343434" stroke-width="0.5"/>
<path d="M691 170L860 0" stroke="#343434" stroke-width="0.5"/>
<path d="M705 170L874 0" stroke="#343434" stroke-width="0.5"/>
<path d="M719 170L888 0" stroke="#343434" stroke-width="0.5"/>
<path d="M733 170L902 0" stroke="#343434" stroke-width="0.5"/>
<path d="M747 170L916 0" stroke="#343434" stroke-width="0.5"/>
<path d="M761 170L930 0" stroke="#343434" stroke-width="0.5"/>
<path d="M775 170L944 0" stroke="#343434" stroke-width="0.5"/>
<path d="M789 170L958 0" stroke="#343434" stroke-width="0.5"/>
<path d="M803 170L972 0" stroke="#343434" stroke-width="0.5"/>
<path d="M817 170L986 0" stroke="#343434" stroke-width="0.5"/>
<path d="M831 170L1000 0" stroke="#343434" stroke-width="0.5"/>
<path d="M845 170L1014 0" stroke="#343434" stroke-width="0.5"/>
<path d="M859 170L1028 0" stroke="#343434" stroke-width="0.5"/>
<path d="M873 170L1042 0" stroke="#343434" stroke-width="0.5"/>
<path d="M887 170L1056 0" stroke="#343434" stroke-width="0.5"/>
<path d="M901 170L1070 0" stroke="#343434" stroke-width="0.5"/>
<path d="M915 170L1084 0" stroke="#343434" stroke-width="0.5"/>
<path d="M929 170L1098 0" stroke="#343434" stroke-width="0.5"/>
<path d="M943 170L1112 0" stroke="#343434" stroke-width="0.5"/>
<path d="M957 170L1126 0" stroke="#343434" stroke-width="0.5"/>
<path d="M971 170L1140 0" stroke="#343434" stroke-width="0.5"/>
<path d="M985 170L1154 0" stroke="#343434" stroke-width="0.5"/>
<path d="M999 170L1168 0" stroke="#343434" stroke-width="0.5"/>
<path d="M1013 170L1182 0" stroke="#343434" stroke-width="0.5"/>
<path d="M1027 170L1196 0" stroke="#343434" stroke-width="0.5"/>
<path d="M1041 170L1210 0" stroke="#343434" stroke-width="0.5"/>
<path d="M1055 170L1224 0" stroke="#343434" stroke-width="0.5"/>
<path d="M1069 170L1238 0" stroke="#343434" stroke-width="0.5"/>
<path d="M1083 170L1252 0" stroke="#343434" stroke-width="0.5"/>
<path d="M1097 170L1266 0" stroke="#343434" stroke-width="0.5"/>
<path d="M1111 170L1280 0" stroke="#343434" stroke-width="0.5"/>
<path d="M1125 170L1294 0" stroke="#343434" stroke-width="0.5"/>
<path d="M1139 170L1308 0" stroke="#343434" stroke-width="0.5"/>
</svg>
